<svg xmlns="http://www.w3.org/2000/svg" width="63" height="63" viewBox="0 0 63 63" xmlns:xlink="http://www.w3.org/1999/xlink">
  <defs>
    <circle id="a" cx="27" cy="27" r="27"/>
  </defs>
  <g fill="none" fill-rule="evenodd" transform="rotate(45 23.542 34.35)">
    <circle cx="27" cy="27" r="29" stroke="#FFFFFF" stroke-width="4"/>
    <circle cx="27" cy="27" r="27" fill="#FFFFFF"/>
    <g>
      <mask id="b" fill="white">
        <use xlink:href="#a"/>
      </mask>
      <use fill="#6A35A8" fill-opacity=".3" xlink:href="#a"/>
      <rect width="29" height="64" x="27" y="-5" fill="#6A35A8" mask="url(#b)"/>
    </g>
    <path fill="#FFFFFF" fill-rule="nonzero" d="M38.3993432,12.7187771 C39.1840205,12.7187771 39.8706131,12.9791112 40.4591211,13.4997793 C41.0476291,14.0204475 41.3418831,14.6726824 41.3418831,15.4564839 C41.3418831,16.1619053 41.0896654,17.0072913 40.58523,17.9926418 C36.8636176,25.0356587 34.2573679,29.2457927 32.766481,30.623044 C31.6791425,31.6419861 30.4572878,32.1514571 29.100917,32.1514571 C27.6884979,32.1514571 26.4750505,31.6335882 25.4605748,30.5978504 C24.4460991,29.5621127 23.9388613,28.3332238 23.9388613,26.9111838 C23.9388613,25.4779467 24.4545064,24.2910472 25.4857966,23.3504853 L36.2134564,13.6257475 C36.8748273,13.0211005 37.6034562,12.7187771 38.3993432,12.7187771 Z M23.1149501,30.0855801 C23.5521275,30.9365647 24.1490427,31.6643804 24.9056958,32.2690273 C25.662349,32.8736742 26.5058771,33.2991665 27.4362802,33.5455041 L27.4530947,34.7380022 C27.4979334,37.1229984 26.7721069,39.0657065 25.2756151,40.5661266 C23.7791234,42.0665468 21.8258374,42.8167568 19.4157571,42.8167568 C18.0369669,42.8167568 16.8151123,42.5564227 15.7501931,42.0357546 C14.6852738,41.5150864 13.8305361,40.8012671 13.1859797,39.8942967 C12.5414233,38.9873264 12.0566048,37.9627858 11.7315242,36.8206749 C11.4064436,35.6785641 11.2439033,34.4468759 11.2439033,33.1256104 C11.3223711,33.1815963 11.5521694,33.3495537 11.9332984,33.6294829 C12.3144274,33.909412 12.6619273,34.1585489 12.9757983,34.3768936 C13.2896692,34.5952384 13.6203546,34.7995866 13.9678546,34.9899384 C14.3153545,35.1802902 14.5731771,35.2754661 14.7413222,35.2754661 C15.2009189,35.2754661 15.509185,35.0683186 15.6661205,34.6540235 C15.9463624,33.9150106 16.2686406,33.28517 16.632955,32.7645019 C16.9972695,32.2438337 17.3868057,31.8183414 17.8015637,31.4880251 C18.2163217,31.1577087 18.7095475,30.891776 19.281241,30.690227 C19.8529344,30.4886781 20.4302327,30.3459142 21.0131359,30.2619355 C21.596039,30.1779567 22.2966438,30.1191716 23.1149501,30.0855801 Z" transform="rotate(-45 26.293 27.768)"/>
  </g>
</svg>
