<svg xmlns="http://www.w3.org/2000/svg" width="63" height="63" viewBox="0 0 63 63" xmlns:xlink="http://www.w3.org/1999/xlink">
  <defs>
    <circle id="a" cx="27" cy="27" r="27"/>
  </defs>
  <g fill="none" fill-rule="evenodd" transform="rotate(45 23.861 34.217)">
    <circle cx="27" cy="27" r="29" stroke="#FFFFFF" stroke-width="4"/>
    <circle cx="27" cy="27" r="27" fill="#FFFFFF"/>
    <g>
      <mask id="b" fill="white">
        <use xlink:href="#a"/>
      </mask>
      <use fill="#E47C64" fill-opacity=".3" xlink:href="#a"/>
      <rect width="29" height="64" x="27" y="-5" fill="#E47C64" mask="url(#b)"/>
    </g>
    <path fill="#FFFFFF" d="M39.9154099,20.1655651 L37.3066205,17.5567757 C36.948736,17.1986558 36.5136238,17.0197136 36.0022257,17.0197136 C35.4905922,17.0197136 35.05548,17.1986558 34.6975956,17.5567757 L22.1137183,30.1599599 L16.4739771,24.5009117 C16.1158572,24.1427918 15.6809804,23.9638495 15.1695824,23.9638495 C14.6579488,23.9638495 14.2230721,24.1427918 13.8649522,24.5009117 L11.2561628,27.1097011 C10.8980428,27.467821 10.7191006,27.9026978 10.7191006,28.4143313 C10.7191006,28.9257294 10.8980428,29.3608415 11.2561628,29.718726 L18.2002987,36.662862 L20.8093236,39.2716514 C21.1672081,39.6297713 21.6020848,39.8087136 22.1137183,39.8087136 C22.6251164,39.8087136 23.0599931,39.6295359 23.418113,39.2716514 L26.0271379,36.662862 L39.9154099,22.77459 C40.2732943,22.4164701 40.452472,21.9815934 40.452472,21.4699599 C40.4527075,20.9585618 40.2732943,20.5236851 39.9154099,20.1655651 L39.9154099,20.1655651 Z" transform="rotate(-45 25.586 28.414)"/>
  </g>
</svg>
