<svg xmlns="http://www.w3.org/2000/svg" viewBox="0 0 346.18 160.94"><defs><style>.a,.i,.n{fill:#e47c63;}.b,.c,.d{fill:#fff;}.c{font-size:122.75px;}.c,.d{font-family:AvenirNextCondensed-Regular, Avenir Next Condensed;}.d{font-size:51.15px;}.e{font-size:27.28px;font-family:PTSans-Regular, PT Sans;}.e,.o{fill:#6d6e71;}.f{letter-spacing:-0.03em;}.g{letter-spacing:-0.01em;}.h{letter-spacing:-0.02em;}.i{font-size:34.1px;}.j{letter-spacing:-0.02em;}.k{letter-spacing:-0.03em;}.l{letter-spacing:0.04em;}.m{letter-spacing:0.01em;}.n{font-size:37.51px;}</style></defs><title>logo_2</title><rect class="a" width="132.17" height="132.17"/><rect class="a" x="8.05" y="8.05" width="117.31" height="117.31"/><path class="b" d="M131.31,232.68l-58.65.49L14,233.45h-.76v-.77c-.12-19.55-.1-39.1-.14-58.65L13,115.37v-1h1l58.65.09c19.55,0,39.1,0,58.65.14h.77v.76L131.8,174Zm0,0L130.82,174l-.28-58.65.77.77c-19.55.12-39.1.09-58.65.14L14,116.37l1-1L14.92,174c0,19.55,0,39.1-.14,58.65l-.77-.77,58.65.28Z" transform="translate(-5.96 -107.33)"/><text class="c" transform="translate(24.49 110.61)">C</text><text class="d" transform="translate(84.44 55.06)">2</text><text class="e" transform="translate(139.48 56.81)"><tspan class="f">C</tspan><tspan class="g" x="14.87" y="0">O</tspan><tspan class="h" x="33.23" y="0">D</tspan><tspan x="50.63" y="0">E</tspan><tspan class="i" x="65.25" y="0">+</tspan><tspan class="f" x="82.47" y="0">C</tspan><tspan class="j" x="97.34" y="0">ON</tspan><tspan class="k" x="133.26" y="0">N</tspan><tspan x="150.8" y="0">E</tspan><tspan class="l" x="165.42" y="0">C</tspan><tspan class="m" x="182.04" y="0">T</tspan><tspan class="n"><tspan x="31.96" y="40.92">DE</tspan><tspan class="o" x="76.6" y="40.92">N</tspan><tspan x="101.84" y="40.92">VER</tspan></tspan></text></svg>