<svg xmlns="http://www.w3.org/2000/svg" width="63" height="63" viewBox="0 0 63 63" xmlns:xlink="http://www.w3.org/1999/xlink">
  <defs>
    <circle id="a" cx="27" cy="27" r="27"/>
  </defs>
  <g fill="none" fill-rule="evenodd" transform="rotate(45 24.042 34.142)">
    <circle cx="27" cy="27" r="29" stroke="#FFFFFF" stroke-width="4"/>
    <circle cx="27" cy="27" r="27" fill="#FFFFFF"/>
    <g>
      <mask id="b" fill="white">
        <use xlink:href="#a"/>
      </mask>
      <use fill="#E47C64" fill-opacity=".3" xlink:href="#a"/>
      <rect width="29" height="64" x="27" y="-5" fill="#E47C64" mask="url(#b)"/>
    </g>
    <g fill="#FFFFFF" transform="rotate(-45 38.046 7.575)">
      <path d="M25.6342192,17.1154352 C25.3885274,17.0176598 25.1735753,17.06069 24.989589,17.2438498 L23.8108562,18.4187311 C23.7005548,18.528672 23.6449521,18.6633947 23.6449521,18.8224487 L23.6449521,21.1352638 C23.6449521,21.9431496 23.3569932,22.6343357 22.7799452,23.2094981 C22.2026712,23.7846605 21.5092192,24.072129 20.698911,24.072129 L5.37741781,24.072129 C4.56710959,24.072129 3.87343151,23.7846605 3.29638356,23.2094981 C2.71933562,22.6343357 2.43092466,21.9431496 2.43092466,21.1352638 L2.43092466,5.86406033 C2.43092466,5.05639987 2.71933562,4.36498845 3.29638356,3.78982606 C3.87343151,3.21466367 4.56710959,2.92719512 5.37741781,2.92719512 L20.699137,2.92719512 C20.9692397,2.92719512 21.2454452,2.9639172 21.5277534,3.03736136 C21.7490342,3.11080552 21.945226,3.06191784 22.1170068,2.89047304 L23.0190822,1.99112003 C23.1664521,1.844457 23.2216027,1.6669294 23.1847603,1.4589878 C23.1479178,1.26321181 23.0373904,1.12240629 22.8531781,1.03679653 C22.1902397,0.731304878 21.4721507,0.577883184 20.6986849,0.577883184 L5.37741781,0.577883184 C3.91660274,0.577883184 2.66734932,1.09492105 1.62988356,2.12899679 C0.592643836,3.16307253 0.0739109589,4.40801861 0.0739109589,5.86428562 L0.0739109589,21.1357144 C0.0739109589,22.5917561 0.592643836,23.8367022 1.62988356,24.8707779 C2.66734932,25.9050789 3.91660274,26.4221168 5.37741781,26.4221168 L20.6986849,26.4221168 C22.1595,26.4221168 23.4087534,25.9050789 24.4462192,24.8707779 C25.4836849,23.8367022 26.0024178,22.5917561 26.0024178,21.1357144 L26.0024178,17.6482433 C26.0024178,17.3909634 25.8794589,17.2136611 25.6342192,17.1154352 L25.6342192,17.1154352 Z"/>
      <path d="M11.8594315 16.4368652L11.8594315 21.7230424 17.1631644 21.7230424 29.5381644 9.38847882 24.2344315 4.10230167 11.8594315 16.4368652 11.8594315 16.4368652zM16.4263151 19.9610584L16.4263151 19.9610584 15.3949521 19.9608331 15.3949521 18.1990745 13.6271918 18.1990745 13.6271918 17.1713068 15.7633767 15.0421021 18.5625 17.8323042 16.4263151 19.9610584 16.4263151 19.9610584zM24.510637 7.35096662L18.0650137 13.775303C17.8563904 13.9836951 17.6538699 13.9895526 17.4574521 13.7937766 17.2610342 13.5980006 17.267137 13.3961418 17.4759863 13.1882003L23.9213836 6.76386393C24.1300068 6.55569705 24.3323014 6.54961425 24.5289452 6.74539024 24.7258151 6.94116624 24.7190342 7.14302503 24.510637 7.35096662L24.510637 7.35096662zM32.4107466 4.02885751L29.6118493 1.23888062C29.2680616.896216303 28.8508151.724996791 28.3594315.724996791 27.8685.724996791 27.4510274.896216303 27.1074658 1.23888062L25.4131644 2.92742041 30.7168973 8.21382285 32.4107466 6.52505777C32.7545342 6.18261874 32.9263151 5.76651027 32.9263151 5.27695764 32.9263151 4.78740501 32.7545342 4.37152182 32.4107466 4.02885751L32.4107466 4.02885751z"/>
    </g>
  </g>
</svg>
