<svg xmlns="http://www.w3.org/2000/svg" width="63" height="63" viewBox="0 0 63 63" xmlns:xlink="http://www.w3.org/1999/xlink">
  <defs>
    <circle id="a" cx="27" cy="27" r="27"/>
  </defs>
  <g fill="none" fill-rule="evenodd" transform="rotate(45 23.098 34.533)">
    <circle cx="27" cy="27" r="29" stroke="#FFFFFF" stroke-width="4"/>
    <circle cx="27" cy="27" r="27" fill="#FFFFFF"/>
    <g>
      <mask id="b" fill="white">
        <use xlink:href="#a"/>
      </mask>
      <use fill="#E47C64" fill-opacity=".3" xlink:href="#a"/>
      <rect width="29" height="64" x="27" y="-5" fill="#E47C64" mask="url(#b)"/>
    </g>
    <path fill="#FFFFFF" d="M34.3926105,25.7707498 C34.0684935,25.4466328 33.6751208,25.2846809 33.211853,25.2846809 L20.4340576,25.2846809 L20.4340576,19.7290899 C20.4340576,18.5020908 20.8681314,17.4547305 21.7362791,16.5865829 C22.6044267,15.7186483 23.651787,15.2845744 24.8787861,15.2845744 C26.1057852,15.2845744 27.1531455,15.7186483 28.02108,16.5865829 C28.8892277,17.4547305 29.3233015,18.5020908 29.3233015,19.7290899 C29.3233015,20.0299795 29.4332584,20.2903812 29.652959,20.5102949 C29.8730858,20.7302086 30.1334874,20.8401655 30.434164,20.8401655 L31.5456658,20.8401655 C31.8465555,20.8401655 32.1069571,20.7302086 32.3268708,20.5102949 C32.5463583,20.2903812 32.6567414,20.0299795 32.6567414,19.7290899 C32.6567414,17.5877016 31.8955672,15.756366 30.3736451,14.2342308 C28.851723,12.7120957 27.0201744,11.9511346 24.8787861,11.9511346 C22.7373978,11.9511346 20.9058492,12.7120957 19.383714,14.2342308 C17.8617919,15.7561529 17.1008308,17.5877016 17.1008308,19.7290899 L17.1008308,25.2846809 L16.545293,25.2846809 C16.0824514,25.2846809 15.6888656,25.4468459 15.3647486,25.7707498 C15.0406316,26.0946537 14.8786797,26.4882396 14.8786797,26.9512943 L14.8786797,36.9516138 C14.8786797,37.4146685 15.0406316,37.8082544 15.3647486,38.1321582 C15.6888656,38.4560621 16.0824514,38.6182272 16.545293,38.6182272 L33.211853,38.6182272 C33.6751208,38.6182272 34.0687066,38.4560621 34.3926105,38.1321582 C34.7165144,37.8082544 34.8786794,37.4146685 34.8786794,36.9516138 L34.8786794,26.9512943 C34.8788925,26.4882396 34.7169406,26.0948668 34.3926105,25.7707498 L34.3926105,25.7707498 Z" transform="rotate(-45 24.879 25.285)"/>
  </g>
</svg>
