<svg xmlns="http://www.w3.org/2000/svg" width="63" height="63" viewBox="0 0 63 63" xmlns:xlink="http://www.w3.org/1999/xlink">
  <defs>
    <circle id="a" cx="27" cy="27" r="27"/>
  </defs>
  <g fill="none" fill-rule="evenodd" transform="rotate(45 23.542 34.35)">
    <circle cx="27" cy="27" r="29" stroke="#FFFFFF" stroke-width="4"/>
    <circle cx="27" cy="27" r="27" fill="#FFFFFF"/>
    <g>
      <mask id="b" fill="white">
        <use xlink:href="#a"/>
      </mask>
      <use fill="#089ABF" fill-opacity=".3" xlink:href="#a"/>
      <rect width="29" height="64" x="27" y="-5" fill="#089ABF" mask="url(#b)"/>
    </g>
    <path fill="#FFFFFF" d="M44.4420071,17.2030669 C44.1397902,16.7655125 43.7144576,16.4297952 43.1660095,16.1953397 C43.1951964,16.7424985 43.1593761,17.1878201 43.0582833,17.53188 L36.5732222,40.6647302 C36.457536,41.070928 36.2052021,41.3951383 35.8164858,41.6373611 C35.4272388,41.8795838 35.0239291,42.0006952 34.6060259,42.0006952 L14.6530734,42.0006952 C12.9236176,42.0006952 11.8861564,41.4543994 11.5401591,40.3600818 C11.3960821,39.9380619 11.4032461,39.6023446 11.5619166,39.3523545 C11.7203218,39.1176113 11.9941479,39.0005274 12.3833949,39.0005274 L31.1691372,39.0005274 C32.509346,39.0005274 33.4353664,38.7306878 33.9469329,38.1915839 C34.4590302,37.65248 34.9740461,36.4531608 35.4927767,34.5939141 L41.4158575,13.3591469 C41.7326679,12.202979 41.6031843,11.1871968 41.0266106,10.3123756 C40.4500369,9.43755444 39.6285587,9 38.5621759,9 L22.1113846,9 C21.9240578,9 21.5565684,9.07019282 21.0089162,9.21086614 L21.0304084,9.14038564 C20.6268333,9.04689111 20.2845507,9.00402746 20.0035606,9.01150702 C19.7225705,9.01956193 19.4630725,9.10931669 19.225332,9.28134664 C18.9875916,9.45337659 18.7965501,9.63662589 18.652473,9.83195755 C18.5083959,10.0272892 18.3677682,10.2772792 18.2308552,10.5819276 C18.0942075,10.8868636 17.9787866,11.1682103 17.8851232,11.4259675 C17.7914598,11.6837248 17.683203,11.9573042 17.5608834,12.2467057 C17.4382985,12.5358196 17.3196936,12.7740149 17.2042727,12.9612917 C17.1177734,13.0864305 16.9954538,13.2504055 16.8367833,13.4535044 C16.6783781,13.6566034 16.5486291,13.8364005 16.4478017,13.9926083 C16.3469742,14.1488161 16.2819671,14.2894895 16.2533109,14.4146283 C16.2246546,14.5550139 16.2389827,14.7621403 16.2965605,15.0357197 C16.3541383,15.3090114 16.3758958,15.5080829 16.3613023,15.6332217 C16.3037246,16.226984 16.1055191,16.9806938 15.7669512,17.8949265 C15.4283833,18.8091593 15.121921,19.4693745 14.8480949,19.8755724 C14.7905171,19.9535324 14.6321119,20.1293021 14.3726139,20.4028815 C14.113116,20.6761733 13.9547108,20.9143686 13.897133,21.1174675 C13.8395552,21.1954276 13.8358405,21.4143486 13.8862543,21.7736553 C13.936668,22.1332497 13.9549761,22.382952 13.9403827,22.5236254 C13.8825396,23.054962 13.7026422,23.7580409 13.3998946,24.6331498 C13.0971469,25.507971 12.7946646,26.2268721 12.491917,26.7892777 C12.4486674,26.8830599 12.3263478,27.0625694 12.1244276,27.3283816 C11.9227727,27.5941937 11.8001878,27.8128271 11.7569381,27.9845694 C11.7282819,28.1094206 11.7319966,28.3283416 11.7678169,28.6407572 C11.8036371,28.9531728 11.8001878,29.1873407 11.7569381,29.3435485 C11.6417826,29.937023 11.4255343,30.6521843 11.1084585,31.4881693 C10.7913828,32.3238667 10.467143,33.0393157 10.1354738,33.6325025 C10.0492398,33.788998 9.93010427,33.9728227 9.77886313,34.1834011 C9.62762198,34.3942673 9.50875175,34.5778042 9.42225243,34.734012 C9.3357531,34.8905075 9.27817533,35.0544825 9.24925378,35.2262248 C9.23492567,35.320007 9.25668317,35.472475 9.31426094,35.6836289 C9.37183871,35.8942073 9.39359621,36.0622098 9.37900276,36.1876363 C9.36440932,36.4062697 9.3357531,36.6956713 9.29250344,37.054978 C9.24925378,37.4142847 9.22749628,37.6248632 9.22749628,37.6872887 C8.91042055,38.6251109 8.92474866,39.6173037 9.27074594,40.6644425 C9.674321,41.8827483 10.3912571,42.9106128 11.4215542,43.7465978 C12.4521167,44.5822952 13.5219488,45 14.6318466,45 L34.5850644,45 C35.5214329,45 36.4042036,44.6599676 37.2328458,43.9807657 C38.0614881,43.3009885 38.612855,42.4612637 38.8864157,41.4607283 L44.8309888,20.2265365 C45.1483298,19.1014376 45.0188462,18.0937103 44.4420071,17.2030669 L44.4420071,17.2030669 Z M21.4411475,17.249958 L21.8951363,15.7497303 C21.952714,15.5466314 22.0715843,15.3708617 22.251747,15.2224211 C22.4319097,15.0742682 22.6157871,14.9997603 22.8031138,14.9997603 L35.9467654,14.9997603 C36.1484203,14.9997603 36.2924974,15.0739805 36.3789967,15.2224211 C36.465496,15.3708617 36.4800895,15.5466314 36.4225117,15.7497303 L35.9682576,17.249958 C35.9104145,17.453057 35.7918096,17.628539 35.6113816,17.7772672 C35.4309535,17.9254201 35.2476068,17.9996404 35.06028,17.9996404 L21.9168938,17.9996404 C21.7149736,17.9996404 21.5708965,17.9257078 21.4843972,17.7772672 C21.3978978,17.628539 21.3835697,17.453057 21.4411475,17.249958 L21.4411475,17.249958 Z M19.6469499,23.250006 L20.1009387,21.7500659 C20.1585165,21.546967 20.2773867,21.3711973 20.4575494,21.2227567 C20.6377121,21.0743162 20.8213241,21.0000959 21.0089162,21.0000959 L34.1523025,21.0000959 C34.3542227,21.0000959 34.4982998,21.0740285 34.5847991,21.2227567 C34.6710331,21.3711973 34.6856265,21.546967 34.6277834,21.7500659 L34.1737947,23.250006 C34.1162169,23.4531049 33.9973467,23.6288746 33.817184,23.7773152 C33.6367559,23.9257557 33.4534092,23.999976 33.2658171,23.999976 L20.1224308,23.999976 C19.920776,23.999976 19.7766989,23.9260434 19.6901996,23.7773152 C19.6037002,23.6288746 19.5893721,23.4531049 19.6469499,23.250006 L19.6469499,23.250006 Z" transform="rotate(-30 27 27)"/>
  </g>
</svg>
