<svg xmlns="http://www.w3.org/2000/svg" viewBox="0 0 300.31 139.62"><defs><style>.a,.i,.o{fill:#0e9abf;}.b,.c,.d{fill:#fff;}.c{font-size:106.49px;}.c,.d{font-family:AvenirNextCondensed-Regular, Avenir Next Condensed;}.d{font-size:44.37px;}.e{font-size:23.66px;fill:#6d6e71;font-family:PTSans-Regular, PT Sans;}.f{letter-spacing:-0.03em;}.g{letter-spacing:-0.01em;}.h{letter-spacing:-0.02em;}.i{font-size:29.58px;}.j{letter-spacing:-0.02em;}.k{letter-spacing:-0.03em;}.l{letter-spacing:0em;}.m{letter-spacing:0.04em;}.n{letter-spacing:0.01em;}.o{font-size:32.54px;}.p{fill:#694099;}</style></defs><title>logo</title><rect class="a" width="114.66" height="114.66"/><rect class="a" x="6.98" y="6.98" width="101.76" height="101.76"/><path class="b" d="M118.76,128.48,67.88,129,17,129.25h-.76v-.77c-.12-17-.1-33.92-.14-50.88L16,26.72v-1h1l50.88.09c17,0,33.92,0,50.88.14h.77v.76l-.28,50.88Zm0,0-.49-50.88L118,26.72l.77.77c-17,.12-33.92.09-50.88.14L17,27.72l1-1L17.9,77.6c0,17,0,33.92-.14,50.88l-.77-.77,50.88.28Z" transform="translate(-10.01 -19.74)"/><text class="c" transform="translate(21.24 95.96)">C</text><text class="d" transform="translate(73.25 47.77)">2</text><text class="e" transform="translate(121 49.28)"><tspan class="f">C</tspan><tspan class="g" x="12.9" y="0">O</tspan><tspan class="h" x="28.82" y="0">D</tspan><tspan x="43.92" y="0">E</tspan><tspan class="i" x="56.6" y="0">+</tspan><tspan class="f" x="71.54" y="0">C</tspan><tspan class="j" x="84.44" y="0">ON</tspan><tspan class="k" x="115.6" y="0">N</tspan><tspan class="l" x="130.82" y="0">E</tspan><tspan class="m" x="143.5" y="0">C</tspan><tspan class="n" x="157.91" y="0">T</tspan><tspan class="o"><tspan x="27.73" y="35.5">DE</tspan><tspan class="p" x="66.45" y="35.5">N</tspan><tspan x="88.34" y="35.5">VER</tspan></tspan></text></svg>